<svg width="80" height="70" viewBox="0 0 80 70" fill="none" xmlns="http://www.w3.org/2000/svg">
<g clip-path="url(#clip0_51_2)">
<path d="M71.0899 20.7402C70.9299 20.5702 70.7599 20.4002 70.5899 20.2402C70.4199 20.0802 70.2599 19.9002 70.0899 19.7402C69.9199 19.5802 69.7599 19.4002 69.5899 19.2402C69.4199 19.0802 69.2599 18.9002 69.0899 18.7402C68.9199 18.5802 68.7599 18.4002 68.5899 18.2402C68.4199 18.0802 68.2599 17.9002 68.0899 17.7402C67.9199 17.5802 67.7599 17.4002 67.5899 17.2402C72.5501 22.115 75.3917 28.7465 75.4999 35.7002C75.4999 52.2702 58.6799 65.7502 37.9999 65.7502C26.4199 65.7502 16.0599 61.5202 9.16992 54.8902L9.66992 55.3902L10.1699 55.8902L10.6699 56.3902L11.1699 56.8902L11.6699 57.3902L12.1699 57.8902L12.6699 58.3902C19.5499 65.3002 30.1399 69.7502 41.9999 69.7502C62.6799 69.7502 79.4999 56.2702 79.4999 39.7502C79.4999 32.6902 76.4599 26.0002 71.0899 20.7402Z" fill="black"/>
<path d="M73 35.7C73 50.91 57.33 63.24 38 63.24C18.67 63.24 3 50.91 3 35.7C3 26.27 9 17.94 18.22 13C27.44 8.06 33.18 3 38 3C42.82 3 46.94 7.13 57.78 13C67 17.94 73 26.27 73 35.7Z" fill="#FBF0DF"/>
<path d="M72.9999 35.6999C72.995 33.746 72.7259 31.8017 72.1999 29.9199C69.4699 63.2199 28.8499 64.8199 12.8799 54.8599C20.0589 60.4243 28.918 63.3797 37.9999 63.2399C57.2999 63.2399 72.9999 50.8899 72.9999 35.6999Z" fill="#F6DECE"/>
<path d="M24.53 11.17C29 8.49 34.94 3.46 40.78 3.45C39.8816 3.1596 38.9442 3.00786 38 3C35.58 3 33 4.25 29.75 6.13C28.62 6.79 27.45 7.52 26.21 8.28C23.88 9.72 21.21 11.35 18.21 12.98C8.69 18.13 3 26.62 3 35.7C3 36.1 3 36.5 3 36.89C9.06 15.48 20.07 13.85 24.53 11.17Z" fill="#FFFEFC"/>
<path fill-rule="evenodd" clip-rule="evenodd" d="M35.12 5.53004C35.134 7.89126 34.6382 10.2277 33.6666 12.3798C32.695 14.5319 31.2703 16.4489 29.49 18C29.21 18.25 29.43 18.73 29.79 18.59C33.16 17.28 37.71 13.36 35.79 5.45004C35.71 5.00004 35.12 5.12004 35.12 5.53004ZM37.39 5.53004C38.6136 7.52647 39.3909 9.76388 39.6688 12.0889C39.9467 14.4139 39.7186 16.7715 39 19C38.88 19.35 39.31 19.65 39.55 19.36C41.74 16.56 43.65 11 37.93 5.00004C37.64 4.74004 37.19 5.14004 37.39 5.49004V5.53004ZM40.15 5.36004C42.0661 6.71659 43.6691 8.46827 44.8507 10.4969C46.0324 12.5256 46.7653 14.7841 47 17.12C46.9899 17.2042 47.0125 17.2891 47.0633 17.357C47.114 17.4249 47.189 17.4707 47.2726 17.4848C47.3561 17.499 47.442 17.4804 47.5123 17.433C47.5825 17.3855 47.6318 17.3129 47.65 17.23C48.57 13.74 48.05 7.79004 40.48 4.70004C40.08 4.54004 39.82 5.08004 40.15 5.32004V5.36004ZM21.69 15.76C23.9692 15.0791 26.0795 13.9258 27.8835 12.3751C29.6874 10.8244 31.1445 8.91123 32.16 6.76004C32.34 6.40004 32.91 6.54004 32.82 6.94004C31.09 14.94 25.3 16.61 21.7 16.39C21.32 16.4 21.33 15.87 21.69 15.76Z" fill="#CCBEA7"/>
<path d="M38 65.75C17.32 65.75 0.5 52.27 0.5 35.7C0.5 25.7 6.68 16.37 17.03 10.78C20.03 9.18 22.6 7.57 24.89 6.16C26.15 5.38 27.34 4.65 28.49 3.97C32 1.89 35 0.5 38 0.5C41 0.5 43.62 1.7 46.9 3.64C47.9 4.21 48.9 4.83 49.97 5.51C52.46 7.05 55.27 8.79 58.97 10.78C69.32 16.37 75.5 25.69 75.5 35.7C75.5 52.27 58.68 65.75 38 65.75ZM38 3C35.58 3 33 4.25 29.75 6.13C28.62 6.79 27.45 7.52 26.21 8.28C23.88 9.72 21.21 11.35 18.21 12.98C8.69 18.13 3 26.62 3 35.7C3 50.89 18.7 63.25 38 63.25C57.3 63.25 73 50.89 73 35.7C73 26.62 67.31 18.13 57.78 13C54 11 51.05 9.12 48.66 7.64C47.57 6.97 46.57 6.35 45.66 5.8C42.63 4 40.42 3 38 3Z" fill="black"/>
<path d="M45.0501 42.9998C44.6009 44.8397 43.5783 46.4891 42.1301 47.7098C41.0429 48.7637 39.6354 49.4252 38.1301 49.5898C36.5796 49.4513 35.1227 48.7881 34.0001 47.7098C32.5667 46.4834 31.5585 44.8346 31.1201 42.9998C31.1056 42.8908 31.1162 42.78 31.1511 42.6758C31.186 42.5716 31.2443 42.4768 31.3215 42.3986C31.3987 42.3204 31.4928 42.261 31.5966 42.2248C31.7003 42.1886 31.811 42.1766 31.9201 42.1898H44.2601C44.3684 42.1782 44.4779 42.1914 44.5804 42.2284C44.6829 42.2653 44.7756 42.325 44.8517 42.403C44.9278 42.481 44.9851 42.5752 45.0195 42.6786C45.0539 42.7819 45.0643 42.8918 45.0501 42.9998Z" fill="#B71422"/>
<path d="M34.0001 47.7892C35.1204 48.8682 36.572 49.5376 38.1201 49.6892C39.6646 49.5354 41.1123 48.8661 42.2301 47.7892C42.5876 47.4559 42.9217 47.0984 43.2301 46.7192C42.614 46.0203 41.8616 45.4549 41.0189 45.0576C40.1762 44.6603 39.2612 44.4397 38.3301 44.4092C37.3338 44.4328 36.3581 44.6981 35.4871 45.1824C34.6162 45.6667 33.8759 46.3554 33.3301 47.1892C33.5601 47.3992 33.7601 47.5992 34.0001 47.7892Z" fill="#FF6164"/>
<path d="M34.1602 46.9992C34.6559 46.3583 35.2905 45.8382 36.0163 45.478C36.742 45.1177 37.54 44.9266 38.3502 44.9192C39.8477 44.9633 41.2746 45.5662 42.3502 46.6092C42.5802 46.3592 42.8002 46.0992 43.0102 45.8392C41.738 44.6276 40.0567 43.9387 38.3002 43.9092C37.3614 43.9173 36.4361 44.1331 35.5907 44.5411C34.7452 44.9492 34.0005 45.5393 33.4102 46.2692C33.6466 46.5261 33.897 46.7698 34.1602 46.9992Z" fill="black"/>
<path d="M38.0901 50.1896C36.4237 50.0436 34.8555 49.3388 33.6401 48.1896C32.0921 46.8804 31.0026 45.1111 30.5301 43.1396C30.4962 42.9641 30.5019 42.7832 30.5469 42.6102C30.5919 42.4372 30.675 42.2764 30.7901 42.1396C30.9271 41.9741 31.1002 41.8421 31.296 41.7537C31.4918 41.6653 31.7053 41.6229 31.9201 41.6296H44.2601C44.4745 41.6251 44.6872 41.6685 44.8827 41.7568C45.0783 41.845 45.2516 41.9758 45.3901 42.1396C45.504 42.2769 45.5857 42.438 45.6289 42.6111C45.6722 42.7842 45.676 42.9648 45.6401 43.1396C45.1676 45.1111 44.078 46.8804 42.5301 48.1896C41.3172 49.3368 39.7529 50.0414 38.0901 50.1896ZM31.9201 42.7896C31.7601 42.7896 31.7201 42.8596 31.7101 42.8796C32.1328 44.5893 33.089 46.1199 34.4401 47.2496C35.428 48.2229 36.7125 48.8388 38.0901 48.9996C39.464 48.8406 40.7471 48.2325 41.7401 47.2696C43.0869 46.138 44.0394 44.6077 44.4601 42.8996C44.4382 42.8676 44.408 42.8423 44.3727 42.8264C44.3374 42.8105 44.2984 42.8047 44.2601 42.8096L31.9201 42.7896Z" fill="black"/>
<path d="M53.2201 43.6202C56.451 43.6202 59.0701 42.0801 59.0701 40.1802C59.0701 38.2804 56.451 36.7402 53.2201 36.7402C49.9893 36.7402 47.3701 38.2804 47.3701 40.1802C47.3701 42.0801 49.9893 43.6202 53.2201 43.6202Z" fill="#FEBBD0"/>
<path d="M22.9501 43.6202C26.181 43.6202 28.8001 42.0801 28.8001 40.1802C28.8001 38.2804 26.181 36.7402 22.9501 36.7402C19.7192 36.7402 17.1001 38.2804 17.1001 40.1802C17.1001 42.0801 19.7192 43.6202 22.9501 43.6202Z" fill="#FEBBD0"/>
<path fill-rule="evenodd" clip-rule="evenodd" d="M25.7002 38.8003C26.7904 38.8022 27.8567 38.4808 28.7641 37.8765C29.6715 37.2723 30.3793 36.4124 30.7979 35.4058C31.2165 34.3991 31.327 33.291 31.1155 32.2215C30.9041 31.152 30.3801 30.1692 29.6099 29.3977C28.8397 28.6261 27.8579 28.1003 26.7888 27.8869C25.7197 27.6735 24.6113 27.782 23.6039 28.1987C22.5965 28.6155 21.7354 29.3217 21.1295 30.228C20.5236 31.1344 20.2002 32.2001 20.2002 33.2903C20.2002 34.7499 20.7793 36.1499 21.8105 37.1829C22.8417 38.2159 24.2406 38.7976 25.7002 38.8003ZM50.4702 38.8003C51.5616 38.8082 52.6308 38.4918 53.5422 37.8912C54.4536 37.2906 55.166 36.4328 55.5892 35.4267C56.0124 34.4206 56.1272 33.3115 55.9192 32.24C55.7111 31.1686 55.1895 30.1831 54.4205 29.4085C53.6516 28.6339 52.6699 28.1051 51.5999 27.8892C50.53 27.6734 49.4201 27.7801 48.411 28.196C47.4018 28.6118 46.5389 29.318 45.9316 30.225C45.3244 31.1319 45.0002 32.1988 45.0002 33.2903C44.9975 34.7455 45.5717 36.1425 46.597 37.1752C47.6222 38.208 49.015 38.7923 50.4702 38.8003Z" fill="black"/>
<path fill-rule="evenodd" clip-rule="evenodd" d="M24.0002 33.64C24.41 33.642 24.8112 33.5222 25.1529 33.296C25.4947 33.0697 25.7615 32.7472 25.9197 32.3691C26.0779 31.991 26.1204 31.5745 26.0416 31.1723C25.9629 30.7701 25.7665 30.4003 25.4774 30.1098C25.1883 29.8193 24.8195 29.6212 24.4177 29.5405C24.0159 29.4598 23.5992 29.5002 23.2204 29.6566C22.8415 29.813 22.5176 30.0783 22.2897 30.4189C22.0618 30.7595 21.9402 31.1601 21.9402 31.57C21.9402 32.1172 22.1569 32.6422 22.5429 33.0302C22.929 33.4181 23.4529 33.6373 24.0002 33.64ZM48.7702 33.64C49.18 33.642 49.5812 33.5222 49.9229 33.296C50.2646 33.0697 50.5315 32.7472 50.6897 32.3691C50.8479 31.991 50.8904 31.5745 50.8116 31.1723C50.7329 30.7701 50.5365 30.4003 50.2474 30.1098C49.9583 29.8193 49.5895 29.6212 49.1877 29.5405C48.7859 29.4598 48.3692 29.5002 47.9904 29.6566C47.6115 29.813 47.2876 30.0783 47.0597 30.4189C46.8318 30.7595 46.7102 31.1601 46.7102 31.57C46.7101 32.1138 46.9241 32.6358 47.3058 33.0232C47.6876 33.4105 48.2064 33.6321 48.7502 33.64H48.7702Z" fill="white"/>
</g>
<defs>
<clipPath id="clip0_51_2">
<rect width="80" height="70" fill="white"/>
</clipPath>
</defs>
</svg>
